<?xml version="1.0" encoding="UTF-8" standalone="no"?>
<!-- Created with Inkscape (http://www.inkscape.org/) -->

<svg
   xmlns:dc="http://purl.org/dc/elements/1.1/"
   xmlns:cc="http://creativecommons.org/ns#"
   xmlns:rdf="http://www.w3.org/1999/02/22-rdf-syntax-ns#"
   xmlns:svg="http://www.w3.org/2000/svg"
   xmlns="http://www.w3.org/2000/svg"
   xmlns:xlink="http://www.w3.org/1999/xlink"
   xmlns:sodipodi="http://sodipodi.sourceforge.net/DTD/sodipodi-0.dtd"
   xmlns:inkscape="http://www.inkscape.org/namespaces/inkscape"
   width="150"
   height="50"
   id="svg2"
   version="1.1"
   inkscape:version="0.92.1 r15371"
   sodipodi:docname="logo.svg">
  <defs
     id="defs4">
    <filter
       id="filter3859"
       inkscape:label="Color outline"
       inkscape:menu="Morphology"
       inkscape:menu-tooltip="Draws a colored outline around"
       width="1.5"
       height="1.5"
       x="-0.25"
       y="-0.25"
       style="color-interpolation-filters:sRGB">
      <feGaussianBlur
         id="feGaussianBlur3861"
         in="SourceAlpha"
         stdDeviation="7.9039473684210515"
         result="blur" />
      <feColorMatrix
         id="feColorMatrix3863"
         values="1 0 0 0 0 0 1 0 0 0 0 0 1 0 0 0 0 0 10 -1 "
         result="result4" />
      <feFlood
         id="feFlood3865"
         result="result1"
         flood-color="rgb(154,27,74)"
         in="blur" />
      <feComposite
         id="feComposite3867"
         in2="result4"
         result="result2"
         in="result1"
         operator="atop" />
      <feComposite
         id="feComposite3869"
         in2="result2"
         in="SourceGraphic"
         result="result3"
         operator="atop" />
    </filter>
    <linearGradient
       inkscape:collect="always"
       xlink:href="#linearGradient22883"
       id="linearGradient4535"
       gradientUnits="userSpaceOnUse"
       gradientTransform="matrix(0.78389393,0,0,0.78389393,25.732925,614.63694)"
       x1="-12.587455"
       y1="518.27429"
       x2="9.2974176"
       y2="548.72412" />
    <linearGradient
       id="linearGradient22883">
      <stop
         style="stop-color:#ffffff;stop-opacity:1;"
         offset="0"
         id="stop22877" />
      <stop
         id="stop22879"
         offset="0.52729666"
         style="stop-color:#f99c49;stop-opacity:1;" />
      <stop
         style="stop-color:#a90064;stop-opacity:1;"
         offset="1"
         id="stop22881" />
    </linearGradient>
    <linearGradient
       inkscape:collect="always"
       xlink:href="#linearGradient22883"
       id="linearGradient4537"
       gradientUnits="userSpaceOnUse"
       gradientTransform="matrix(0.78535137,0,0,0.7824392,25.780768,613.49632)"
       x1="-11.903294"
       y1="513.19733"
       x2="3.8608074"
       y2="528.90466" />
    <linearGradient
       inkscape:collect="always"
       xlink:href="#linearGradient22883"
       id="linearGradient4539"
       gradientUnits="userSpaceOnUse"
       gradientTransform="matrix(0.78535137,0,0,0.7824392,25.780768,613.49632)"
       x1="-22.566429"
       y1="540.89142"
       x2="4.9784784"
       y2="506.47638" />
    <linearGradient
       inkscape:collect="always"
       xlink:href="#linearGradient22883"
       id="linearGradient4541"
       gradientUnits="userSpaceOnUse"
       gradientTransform="matrix(0.78535137,0,0,0.7824392,25.780768,613.49632)"
       x1="3.8467064"
       y1="528.75983"
       x2="-23.120464"
       y2="537.93347" />
    <linearGradient
       inkscape:collect="always"
       xlink:href="#linearGradient22883"
       id="linearGradient4543"
       gradientUnits="userSpaceOnUse"
       gradientTransform="matrix(0.78535137,0,0,0.7824392,25.780768,613.49632)"
       x1="-14.113092"
       y1="534.78784"
       x2="-6.4540377"
       y2="511.34076" />
    <linearGradient
       inkscape:collect="always"
       xlink:href="#linearGradient22883"
       id="linearGradient4545"
       gradientUnits="userSpaceOnUse"
       gradientTransform="matrix(0.78535137,0,0,0.7824392,25.780768,613.49632)"
       x1="-4.7858734"
       y1="503.38745"
       x2="-4.202198"
       y2="537.4187" />
    <linearGradient
       inkscape:collect="always"
       xlink:href="#linearGradient22883"
       id="linearGradient4547"
       gradientUnits="userSpaceOnUse"
       gradientTransform="matrix(0.78535137,0,0,0.7824392,25.780768,613.49632)"
       x1="-33.348373"
       y1="501.63745"
       x2="-0.25787759"
       y2="541.69696" />
    <linearGradient
       inkscape:collect="always"
       xlink:href="#linearGradient22883"
       id="linearGradient4549"
       gradientUnits="userSpaceOnUse"
       x1="137.36815"
       y1="579.24652"
       x2="154.94205"
       y2="600.54816" />
    <linearGradient
       inkscape:collect="always"
       xlink:href="#linearGradient22883"
       id="linearGradient4551"
       gradientUnits="userSpaceOnUse"
       x1="140.27147"
       y1="537.10596"
       x2="141.64806"
       y2="541.23096" />
    <linearGradient
       inkscape:collect="always"
       xlink:href="#linearGradient22883"
       id="linearGradient4553"
       gradientUnits="userSpaceOnUse"
       x1="137.66486"
       y1="534.20758"
       x2="131.27879"
       y2="530.5174" />
    <linearGradient
       inkscape:collect="always"
       xlink:href="#linearGradient22883"
       id="linearGradient4555"
       gradientUnits="userSpaceOnUse"
       x1="133.91377"
       y1="525.2027"
       x2="137.45518"
       y2="530.5152" />
    <linearGradient
       inkscape:collect="always"
       xlink:href="#linearGradient22883"
       id="linearGradient4557"
       gradientUnits="userSpaceOnUse"
       x1="130.48682"
       y1="524.35486"
       x2="140.95557"
       y2="540.35486" />
    <linearGradient
       inkscape:collect="always"
       xlink:href="#linearGradient22883"
       id="linearGradient4559"
       gradientUnits="userSpaceOnUse"
       x1="128.37717"
       y1="526.64374"
       x2="139.51907"
       y2="548.58124" />
    <linearGradient
       inkscape:collect="always"
       xlink:href="#linearGradient22883"
       id="linearGradient4561"
       gradientUnits="userSpaceOnUse"
       x1="133.73547"
       y1="524.01794"
       x2="136.08054"
       y2="531.64294" />
    <linearGradient
       inkscape:collect="always"
       xlink:href="#linearGradient22883"
       id="linearGradient4563"
       gradientUnits="userSpaceOnUse"
       x1="126.48372"
       y1="522.40771"
       x2="144.42656"
       y2="537.56635" />
    <linearGradient
       inkscape:collect="always"
       xlink:href="#linearGradient22883"
       id="linearGradient4565"
       gradientUnits="userSpaceOnUse"
       x1="143.35219"
       y1="543.99518"
       x2="129.79419"
       y2="525.77643" />
    <linearGradient
       inkscape:collect="always"
       xlink:href="#linearGradient22883"
       id="linearGradient4567"
       gradientUnits="userSpaceOnUse"
       x1="136.71806"
       y1="520.22211"
       x2="136.05672"
       y2="545.9873" />
    <linearGradient
       inkscape:collect="always"
       xlink:href="#linearGradient22883"
       id="linearGradient4569"
       gradientUnits="userSpaceOnUse"
       x1="125.97138"
       y1="531.74237"
       x2="136.42302"
       y2="545.53094" />
    <linearGradient
       inkscape:collect="always"
       xlink:href="#linearGradient22883"
       id="linearGradient4571"
       gradientUnits="userSpaceOnUse"
       x1="128.92432"
       y1="555.97668"
       x2="132.76807"
       y2="541.53918" />
    <linearGradient
       inkscape:collect="always"
       xlink:href="#linearGradient22883"
       id="linearGradient4573"
       gradientUnits="userSpaceOnUse"
       x1="118.46834"
       y1="547.55334"
       x2="135.89304"
       y2="548.61401" />
    <linearGradient
       inkscape:collect="always"
       xlink:href="#linearGradient22883"
       id="linearGradient4575"
       gradientUnits="userSpaceOnUse"
       x1="133.5327"
       y1="531.88733"
       x2="139.87456"
       y2="537.3454" />
    <linearGradient
       gradientTransform="matrix(0.62394903,0,0,0.62163535,-103.67459,638.83004)"
       inkscape:collect="always"
       xlink:href="#linearGradient4269"
       id="linearGradient4492"
       gradientUnits="userSpaceOnUse"
       x1="39.093391"
       y1="509.97394"
       x2="220.99062"
       y2="687.34222" />
    <linearGradient
       id="linearGradient4269">
      <stop
         id="stop4271"
         offset="0"
         style="stop-color:#ffffff;stop-opacity:1;" />
      <stop
         style="stop-color:#f99c49;stop-opacity:1;"
         offset="0.67123288"
         id="stop4494" />
      <stop
         id="stop4273"
         offset="1"
         style="stop-color:#a90064;stop-opacity:1;" />
    </linearGradient>
    <linearGradient
       gradientTransform="matrix(0.62394903,0,0,0.62163535,-103.67459,638.83004)"
       inkscape:collect="always"
       xlink:href="#linearGradient4269"
       id="linearGradient4500"
       gradientUnits="userSpaceOnUse"
       x1="232.69601"
       y1="649.35742"
       x2="182.33287"
       y2="600.93488" />
    <linearGradient
       inkscape:collect="always"
       xlink:href="#linearGradient4269"
       id="linearGradient4706"
       gradientUnits="userSpaceOnUse"
       gradientTransform="matrix(0.78535137,0,0,0.7824392,-77.918982,565.56825)"
       x1="110.95867"
       y1="560.82587"
       x2="172.21188"
       y2="617.39441" />
    <linearGradient
       inkscape:collect="always"
       xlink:href="#linearGradient4269"
       id="linearGradient4708"
       gradientUnits="userSpaceOnUse"
       gradientTransform="matrix(0.78535137,0,0,0.7824392,-74.745683,626.03254)"
       x1="96.811462"
       y1="483.29669"
       x2="150.24612"
       y2="534.56189" />
  </defs>
  <sodipodi:namedview
     id="base"
     pagecolor="#ffffff"
     bordercolor="#666666"
     borderopacity="1.0"
     inkscape:pageopacity="0.0"
     inkscape:pageshadow="2"
     inkscape:zoom="19.544909"
     inkscape:cx="41.684054"
     inkscape:cy="27.429488"
     inkscape:document-units="px"
     inkscape:current-layer="layer1"
     showgrid="false"
     inkscape:window-width="2479"
     inkscape:window-height="1416"
     inkscape:window-x="81"
     inkscape:window-y="24"
     inkscape:window-maximized="1" />
  <metadata
     id="metadata7">
    <rdf:RDF>
      <cc:Work
         rdf:about="">
        <dc:format>image/svg+xml</dc:format>
        <dc:type
           rdf:resource="http://purl.org/dc/dcmitype/StillImage" />
        <dc:title></dc:title>
      </cc:Work>
    </rdf:RDF>
  </metadata>
  <g
     inkscape:label="Layer 1"
     inkscape:groupmode="layer"
     id="layer1"
     transform="translate(0,-1002.3622)">
    <text
       inkscape:export-ydpi="84.561127"
       inkscape:export-xdpi="84.561127"
       inkscape:export-filename="/home/bastian/dev/CommentsUI/src/assets/logo_small.png"
       id="text5275"
       y="1025.5139"
       x="49.649681"
       style="font-style:normal;font-variant:normal;font-weight:normal;font-stretch:normal;font-size:9.38423824px;line-height:0%;font-family:Sawasdee;-inkscape-font-specification:Sawasdee;letter-spacing:0px;word-spacing:0px;fill:#9f1900;fill-opacity:1;stroke:none;stroke-width:0.78201991"
       xml:space="preserve"><tspan
         style="font-style:normal;font-variant:normal;font-weight:normal;font-stretch:normal;font-size:31.28079605px;line-height:85.00000238%;font-family:Sawasdee;-inkscape-font-specification:Sawasdee;fill:#9f1900;fill-opacity:1;stroke:none;stroke-width:0.78201991"
         id="tspan5271"
         y="1025.5139"
         x="49.649681"
         sodipodi:role="line">TWO</tspan><tspan
         style="font-style:normal;font-variant:normal;font-weight:normal;font-stretch:normal;font-size:31.28079605px;line-height:85.00000238%;font-family:Sawasdee;-inkscape-font-specification:Sawasdee;fill:#9f1900;fill-opacity:1;stroke:none;stroke-width:0.78201991"
         id="tspan5273"
         y="1052.1025"
         x="49.649681"
         sodipodi:role="line">CENTS </tspan></text>
    <path
       style="fill:url(#linearGradient4706);fill-opacity:1;stroke:url(#linearGradient4708);stroke-width:0.78389394;filter:url(#filter4419)"
       d="m 25.067567,1002.8504 c -0.370434,0.01 -0.732701,0.046 -1.1044,0.074 -11.656523,0.1791 -22.1167041,9.9692 -23.38874556,21.4436 -0.72129811,5.9432 0.70717746,12.1357 4.27034806,16.9937 4.3872555,6.2631 11.7441995,10.3735 19.4374465,10.5629 13.27093,0.7213 25.750077,-11.2733 25.303039,-24.549 0.02937,-1.4796 -0.08034,-2.9694 -0.343591,-4.4257 C 47.3011,1011.7 36.551116,1002.6114 25.067567,1002.8506 Z m 0.22088,3.5699 c 1.64078,0.016 3.261141,0.2129 4.859362,0.6112 9.084513,2.1663 16.077643,11.0111 15.878823,20.3434 0.4381,11.7146 -10.969678,22.0867 -22.603394,20.9548 -7.387557,-0.5815 -14.1819144,-5.3107 -17.3758992,-11.9567 -4.2937437,-8.335 -1.7253227,-19.3497 5.6201712,-25.1359 3.775694,-3.2105 8.698606,-4.8635 13.620937,-4.8168 z"
       id="path3961"
       inkscape:connector-curvature="0"
       inkscape:export-filename="/home/bastian/dev/CommentsUI/src/assets/logo_big.png"
       inkscape:export-xdpi="180.2114"
       inkscape:export-ydpi="180.2114" />
    <ellipse
       cy="1027.3774"
       cx="25.014893"
       id="path3958"
       style="fill:url(#linearGradient4492);fill-opacity:1;stroke:url(#linearGradient4500);stroke-width:0.62279111"
       inkscape:export-filename="/home/bastian/dev/CommentsUI/src/assets/logo_big.png"
       inkscape:export-xdpi="180.2114"
       inkscape:export-ydpi="180.2114"
       rx="21.281118"
       ry="21.202206" />
    <g
       aria-label="2"
       transform="scale(1.0018592,0.99814422)"
       style="font-style:normal;font-weight:normal;font-size:9.40672684px;line-height:0%;font-family:sans-serif;letter-spacing:0px;word-spacing:0px;fill:url(#linearGradient4535);fill-opacity:1;stroke:none;stroke-width:0.78389394"
       id="text22813">
      <path
         d="m 23.944733,1031.4993 -0.282235,1.2828 c -0.23092,1.0264 -0.384866,1.3599 -0.590128,1.4882 -0.256578,0.1796 -0.307893,0.1796 -1.924331,0.2053 h -4.951945 c 0.898021,-0.7698 1.565122,-1.2573 2.565774,-1.9244 3.566427,-2.3092 4.361817,-2.8993 5.105892,-3.8486 0.872364,-1.1546 1.385518,-2.5145 1.385518,-3.7204 0,-2.7454 -2.694063,-4.8237 -6.311805,-4.8237 -3.489454,0 -6.183517,2.2579 -6.183517,5.1829 0,1.796 1.000652,2.9506 2.540117,2.9506 1.334202,0 2.180908,-0.8467 2.180908,-2.1809 0,-1.1033 -0.487497,-1.7447 -1.667754,-2.3092 -0.282235,-0.1283 -0.410523,-0.2822 -0.410523,-0.4875 0,-0.821 1.385518,-1.6934 2.668405,-1.6934 1.796043,0 2.822352,1.1033 2.822352,3.002 0,2.1296 -0.821047,3.6434 -3.540769,6.5427 -2.873667,3.0276 -3.87432,4.2079 -5.157207,6.0552 v 1.2059 c 0.667102,-0.077 0.974995,-0.1026 1.334203,-0.1026 h 9.647313 c 0.436182,0 0.79539,0.026 1.565123,0.1026 l 0.590128,-6.9275 z"
         style="font-style:normal;font-variant:normal;font-weight:bold;font-stretch:normal;font-size:25.65774727px;line-height:1.25;font-family:'Century Schoolbook L';-inkscape-font-specification:'Century Schoolbook L Bold';fill:url(#linearGradient4535);fill-opacity:1;stroke:none;stroke-width:0.78389394"
         id="path6555" />
    </g>
    <path
       style="fill:url(#linearGradient4537);fill-opacity:1;stroke:none;stroke-width:0.78389394"
       d="m 13.104545,1025.6086 c -0.795969,-1.08 -0.843593,-2.9224 -0.112776,-4.3629 0.936461,-1.8459 2.909483,-3.055 5.321682,-3.2612 0.417077,-0.036 1.376234,-0.015 1.789447,0.038 0.959361,0.124 1.773111,0.3626 2.552478,0.7485 0.340426,0.1685 1.017132,0.5906 1.056706,0.6544 0.01312,0.021 -0.368558,0.4656 -0.396744,0.4656 -0.0063,0 -0.146758,-0.1031 -0.297656,-0.203 -1.032698,-0.6836 -2.296831,-1.0542 -3.771626,-1.1059 -3.083188,-0.1081 -5.640472,1.6212 -6.090031,4.1183 -0.06817,0.3785 -0.07382,1.0576 -0.01162,1.3957 0.0823,0.4473 0.252019,0.8705 0.459705,1.1463 l 0.09638,0.128 -0.09253,0.083 c -0.176422,0.1579 -0.359644,0.3091 -0.374707,0.3091 -0.0083,0 -0.06628,-0.069 -0.128727,-0.1541 z"
       id="path22889"
       inkscape:connector-curvature="0"
       sodipodi:nodetypes="csccscssscscccscc" />
    <path
       style="fill:url(#linearGradient4539);fill-opacity:1;stroke:none;stroke-width:0.78389394"
       d="m 11.911212,1035.9491 4.08e-4,-0.7641 0.398409,-0.5543 c 1.100882,-1.5317 2.115477,-2.7096 4.482251,-5.2035 1.776976,-1.8724 2.678488,-3.0147 3.199271,-4.0539 0.401613,-0.8014 0.569309,-1.4345 0.621542,-2.3467 l 0.01712,-0.2995 h 0.307127 0.30712 l -0.01524,0.3519 c -0.06864,1.5842 -0.641915,2.8688 -2.061374,4.6194 -0.511775,0.6312 -1.073254,1.2557 -2.103281,2.3396 -2.13457,2.2463 -3.278489,3.5827 -4.326925,5.0554 l -0.213294,0.2996 -0.0024,0.7224 -0.611537,0.5978 z"
       id="path22891"
       inkscape:connector-curvature="0"
       sodipodi:nodetypes="cccsccccccssccccc" />
    <path
       style="fill:url(#linearGradient4541);fill-opacity:1;stroke:none;stroke-width:0.78389394"
       d="m 17.055467,1032.2386 2.530921,-5e-4 c 2.573581,-5e-4 3.105907,-0.015 3.259192,-0.087 0.24408,-0.1154 0.342845,-0.3917 0.673565,-1.8841 0.109831,-0.4957 0.205236,-0.9204 0.212013,-0.944 0.01131,-0.039 0.06369,-0.039 0.648755,-0.043 l 1.340226,-0.01 -0.703785,0.6195 H 24.627142 24.23793 l -0.104695,0.4829 c -0.306445,1.4135 -0.458779,1.8614 -0.720607,2.119 -0.158013,0.1554 -0.334325,0.2508 -0.54911,0.2969 -0.251957,0.054 -1.558734,0.083 -3.792517,0.084 l -3.699743,7e-4 z"
       id="path22893"
       inkscape:connector-curvature="0"
       sodipodi:nodetypes="cccccsccccsccscc" />
    <path
       style="fill:url(#linearGradient4543);fill-opacity:1;stroke:none;stroke-width:0.78389394"
       d="m 14.965765,1026.6763 c -0.601351,-0.069 -1.135382,-0.3137 -1.555451,-0.7132 -0.09419,-0.09 -0.174866,-0.2004 -0.174866,-0.2004 0,0 0.101553,-0.072 0.211322,-0.1658 0.109761,-0.094 0.251038,-0.2326 0.251038,-0.2326 0,0 0.02906,0.041 0.134059,0.1384 0.161138,0.1502 0.289049,0.241 0.468509,0.3324 0.680476,0.3467 1.634583,0.3045 2.199872,-0.097 0.153112,-0.1088 0.352559,-0.3272 0.442404,-0.4845 0.167429,-0.2929 0.249184,-0.6394 0.249184,-1.0559 0,-0.6324 -0.162434,-1.0402 -0.565924,-1.4207 -0.188123,-0.1774 -0.42142,-0.3321 -0.788603,-0.5228 -0.163738,-0.085 -0.33134,-0.1777 -0.372437,-0.2059 -0.114976,-0.079 -0.218925,-0.2014 -0.278682,-0.3285 -0.105363,-0.2242 -0.07975,-0.546 0.0666,-0.8368 0.353855,-0.7031 1.360157,-1.3011 2.426335,-1.4419 0.398691,-0.053 1.003145,-0.015 1.399543,0.088 0.692452,0.1795 1.245591,0.5638 1.61802,1.124 0.324295,0.4878 0.499452,1.0853 0.543542,1.8543 l 0.0091,0.221 h -0.31224 -0.312248 l -0.0079,-0.089 c -0.0063,-0.044 -0.01099,-0.1241 -0.01099,-0.1777 0,-0.223 -0.07076,-0.6228 -0.156442,-0.884 -0.259394,-0.7909 -0.815202,-1.29 -1.632981,-1.4665 -0.489368,-0.1057 -1.014713,-0.091 -1.504168,0.042 -0.808166,0.2193 -1.521233,0.7746 -1.56043,1.215 -0.01139,0.128 -0.0047,0.1337 0.375626,0.3314 0.755084,0.3922 1.175781,0.7703 1.440248,1.2944 0.174128,0.345 0.247927,0.6955 0.249891,1.1867 0.0016,0.3478 -0.01445,0.4907 -0.08636,0.778 -0.185806,0.7428 -0.716224,1.3283 -1.429166,1.5778 -0.399163,0.1397 -0.891241,0.1914 -1.33626,0.1405 z"
       id="path22899"
       inkscape:connector-curvature="0"
       sodipodi:nodetypes="cccscccscsccccsccscccccssccccsccscc" />
    <path
       style="fill:url(#linearGradient4545);fill-opacity:1;stroke:none;stroke-width:0.78389394"
       d="m 15.865684,1032.454 c 1.224606,-1.0426 1.743016,-1.4211 3.577409,-2.6116 2.147056,-1.3935 3.050564,-2.0396 3.647383,-2.6083 0.806918,-0.7689 1.458249,-1.8976 1.747486,-3.0281 0.169369,-0.662 0.188751,-1.3547 0.05466,-1.9537 -0.186654,-0.834 -0.723198,-1.6659 -1.45363,-2.2539 l -0.123607,-0.099 0.182744,-0.2368 c 0.100509,-0.1302 0.191735,-0.2388 0.202723,-0.2414 0.03149,-0.01 0.399531,0.3155 0.61566,0.5401 1.019771,1.0597 1.457636,2.4121 1.242638,3.8382 -0.170005,1.1277 -0.709793,2.3208 -1.495215,3.3049 -0.190636,0.2388 -0.677232,0.7242 -0.959165,0.9568 -0.625588,0.5161 -1.619277,1.2043 -3.496824,2.4216 -1.159901,0.7521 -2.552494,1.7563 -2.552494,1.7563 l -1.676089,0.6295 z"
       id="path22901"
       inkscape:connector-curvature="0"
       sodipodi:nodetypes="csccsccccsscccccc" />
    <path
       style="fill:url(#linearGradient4547);fill-opacity:1;stroke:none;stroke-width:0.78389394"
       d="m 11.91078,1036.7132 0.611569,-0.5978 c 0,0 1.649866,-0.023 5.940248,-0.023 5.044053,0 5.363958,0 5.681193,0.032 0.184895,0.017 0.341761,0.025 0.348601,0.017 0.0071,-0.01 0.131107,-1.4109 0.276146,-3.1178 0.22267,-2.6205 0.247817,-3.1324 0.247817,-3.1324 l 0.703785,-0.6195 -0.0079,0.082 c -0.0039,0.045 -0.149775,1.7447 -0.323424,3.7769 -0.173657,2.0321 -0.319379,3.6982 -0.323824,3.7024 -0.0047,0 -0.238464,-0.014 -0.520028,-0.041 -0.281572,-0.027 -0.656412,-0.057 -0.832991,-0.067 -3.688363,-0.1912 -11.801396,-0.011 -11.801396,-0.011 z"
       id="path22903"
       inkscape:connector-curvature="0"
       sodipodi:nodetypes="ccsccscccscscc" />
    <g
       id="g4463"
       transform="matrix(0.78535137,0,0,0.7824392,-72.17625,607.07771)">
      <path
         sodipodi:nodetypes="ccscccccccssssscsssccc"
         inkscape:connector-curvature="0"
         id="path4170"
         d="m 140.34375,577.5625 v 3.75 c -4.21358,0.69024 -7.09375,3.76887 -7.09375,7.90625 0,4.14932 2.79635,7.05042 7.09375,7.53125 v 3.51563 h 2.5625 v -3.54688 c 1.62441,-0.20524 2.83646,-0.79886 3.9375,-2 0.90401,-0.93518 1.4074,-1.87863 1.875,-3.34375 l -1.625,-0.53125 c -0.43643,1.15339 -0.71991,1.6578 -1.1875,2.28125 -0.74815,0.99754 -2.00317,1.59375 -3.28125,1.59375 -2.525,0 -3.96875,-2.19707 -3.96875,-6.0625 0,-3.70957 1.38078,-5.875 3.71875,-5.875 0.90401,0 1.625,0.34498 1.625,0.84375 0,0.0935 -0.0319,0.25085 -0.3125,0.59375 -0.52994,0.65463 -0.65625,0.97022 -0.65625,1.5625 0,1.34043 1.03495,2.25 2.53125,2.25 1.71451,0 2.8125,-1.03518 2.8125,-2.625 0,-2.38255 -2.12746,-4.00909 -5.46875,-4.21875 v -3.625 z"
         style="font-style:normal;font-weight:normal;font-size:32.73114777px;line-height:125%;font-family:Sans;letter-spacing:0px;word-spacing:0px;fill:url(#linearGradient4549);fill-opacity:1;stroke:none;filter:url(#filter4419)"
         transform="translate(-7.37293,-51.662991)" />
      <path
         sodipodi:nodetypes="ccccc"
         inkscape:connector-curvature="0"
         id="path4209"
         d="m 139.90969,539.63894 -0.41947,-0.94146 2.31409,0.74279 -0.93569,0.51171 c 0,0 -0.50322,-0.16618 -0.95893,-0.31304 z"
         style="fill:url(#linearGradient4551);fill-opacity:1;stroke:none" />
      <path
         sodipodi:nodetypes="cscccccccccccc"
         inkscape:connector-curvature="0"
         id="path4211"
         d="m 135,530.75 c -0.22972,2.5e-4 -0.44966,0.0188 -0.6875,0.0625 -2.00622,0.36844 -3.27131,2.45052 -3.375,5.5625 l -0.0234,0.57813 c 0.24588,-10e-4 0.47065,-10e-4 0.76172,0 l 0.0117,-0.35938 c 3.3e-4,-0.43568 0.0441,-0.93268 0.125,-1.4375 0.27789,-1.73463 0.96488,-2.91801 2,-3.40625 0.28817,-0.13593 0.51211,-0.2067 0.90625,-0.25 0.73653,-0.0809 1.53325,0.16442 1.53125,0.46875 l 0.375,-0.0937 0.34375,-0.0937 c -0.0414,-0.17845 -0.12902,-0.35711 -0.28125,-0.5 -0.36282,-0.34041 -0.99833,-0.53201 -1.6875,-0.53125 z"
         style="fill:url(#linearGradient4553);fill-opacity:1;stroke:none" />
      <path
         sodipodi:nodetypes="ccccccccc"
         inkscape:connector-curvature="0"
         id="path4213"
         d="m 135.16706,527.90171 c -0.005,-0.88946 -0.004,-1.69805 0.001,-1.79688 l 0.009,0.1573 0.71563,-0.74578 v 2.20567 1.46542 l -0.71765,0.70159 -0.008,-1.98732 z"
         style="fill:url(#linearGradient4555);fill-opacity:1;stroke:none" />
      <path
         sodipodi:nodetypes="ccccccc"
         inkscape:connector-curvature="0"
         id="path4215"
         d="m 132.61182,527.78452 v -2.26562 l 0.71875,0.75391 v 1.51171 2.15626 c -0.23597,-0.19976 -0.47889,-0.39096 -0.71875,-0.58594 z"
         style="fill:url(#linearGradient4557);fill-opacity:1;stroke:none" />
      <path
         sodipodi:nodetypes="cssscscsscscccc"
         inkscape:connector-curvature="0"
         id="path4219"
         d="m 132.46544,545.392 c -3.72749,-0.59199 -6.25718,-2.94909 -6.84077,-6.37406 -0.36008,-2.11321 0.0826,-4.30916 1.20957,-6 0.98417,-1.4766 2.37174,-2.55376 4.14732,-3.21952 0.63502,-0.23811 1.52472,-0.45758 1.62362,-0.44853 0.0268,0.0268 0.738,0.57857 0.72049,0.59608 -0.007,0.007 -0.49171,0.11341 -0.69438,0.15451 -2.97009,0.60244 -5.17391,2.46723 -6.02022,5.09408 -0.24072,0.74716 -0.34545,1.46572 -0.34545,2.37023 0,0.6962 0.0302,1.01425 0.15544,1.63585 0.366,1.81697 1.43574,3.35326 3.01815,4.33445 0.87076,0.53992 2.74111,1.09922 3.89237,1.1794 -0.29458,0.29794 -0.34934,0.33333 -0.70973,0.69538 -1.6e-4,0.0294 0.27874,0.0512 -0.15638,-0.0179 z"
         style="fill:url(#linearGradient4559);fill-opacity:1;stroke:none" />
      <path
         sodipodi:nodetypes="ccccccc"
         inkscape:connector-curvature="0"
         id="path4221"
         d="m 132.61047,525.51794 h 1.65234 1.63023 l -0.71815,0.75 h -0.91208 -0.93749 z"
         style="fill:url(#linearGradient4561);fill-opacity:1;stroke:none" />
      <path
         sodipodi:nodetypes="ccssccccscccsccc"
         inkscape:connector-curvature="0"
         id="path4223"
         d="m 138.17261,535.99272 0.29195,-0.0165 c 1.33873,-0.095 2.15757,-0.94076 2.15757,-2.22844 0,-1.12669 -0.5485,-2.10815 -1.5625,-2.79588 -0.71602,-0.48563 -1.79103,-0.85034 -2.89063,-0.98069 -0.24062,-0.0285 -0.4848,-0.0587 -0.54262,-0.0671 l -0.44991,-0.0146 c 0.35649,-0.37429 0.63069,-0.61118 0.71431,-0.69696 0.70425,0.0661 1.27354,0.16625 1.76255,0.31233 2.06607,0.61717 3.34073,1.84564 3.66144,3.52876 0.0252,0.1321 0.0406,0.42299 0.039,0.73437 -0.002,0.44904 -0.013,0.55424 -0.0827,0.81461 -0.13394,0.50075 -0.33821,0.86795 -0.68723,1.23538 -0.49887,0.52517 -1.24641,0.85466 -2.06005,0.90798 l -0.3509,0.008 c 7.9e-4,-0.20015 -2e-4,-0.54191 -2.8e-4,-0.74126 z"
         style="fill:url(#linearGradient4563);fill-opacity:1;stroke:none" />
      <path
         sodipodi:nodetypes="ccccccscsccccsccc"
         inkscape:connector-curvature="0"
         id="path4225"
         d="m 134.52844,543.36136 c -0.73029,-0.12686 -1.34867,-0.43445 -1.88609,-0.93814 -0.8409,-0.78815 -1.38456,-2.01711 -1.61391,-3.64833 -0.0548,-0.38971 -0.13486,-1.80243 -0.10861,-1.82533 0.2743,10e-4 0.46375,-0.0112 0.75773,-10e-4 l -0.0103,0.50353 c 0.0698,1.52651 0.30867,2.60121 0.77168,3.47188 0.59677,1.12221 1.45576,1.68598 2.65207,1.74062 1.15483,0.0527 2.2776,-0.42048 3.0102,-1.26871 0.37974,-0.43967 0.83554,-1.24007 1.11816,-1.9635 0.0755,-0.19325 0.27243,-0.73438 0.27243,-0.73438 0,0 0.39677,0.91282 0.42737,0.93955 0.003,0.15759 -0.34228,0.87713 -0.59429,1.30245 -0.63166,1.06602 -1.36389,1.73819 -2.32762,2.13672 -0.7685,0.31779 -1.67613,0.4225 -2.46875,0.28482 v 0 z"
         style="fill:url(#linearGradient4565);fill-opacity:1;stroke:none" />
      <path
         sodipodi:nodetypes="ccsccccscccc"
         inkscape:connector-curvature="0"
         id="path4227"
         d="m 135.17126,544.72398 c 0,0 0.39273,-0.0522 0.47436,-0.0639 1.13893,-0.16286 2.09933,-0.57562 2.91426,-1.25248 0.28701,-0.23838 0.83851,-0.80558 1.08556,-1.11648 0.50353,-0.63363 0.90625,-1.40049 1.22554,-2.33956 0.40168,-0.22603 0.436,-0.2393 0.9302,-0.50883 0.0166,0.0131 -0.23238,0.79587 -0.39075,1.20023 -0.41968,1.0716 -0.85772,1.78062 -1.60175,2.59263 -0.95929,1.04694 -2.00964,1.69414 -3.24899,2.00196 -0.19766,0.0491 -0.45782,0.10425 -0.57813,0.12257 -0.12031,0.0183 -0.0909,0.0108 -0.0909,0.0108 z"
         style="fill:url(#linearGradient4567);fill-opacity:1;stroke:none" />
      <path
         style="fill:url(#linearGradient4569);fill-opacity:1;stroke:none"
         d="m 135.16706,546.60525 c -0.005,0.88946 -0.004,1.69805 0.001,1.79688 l 0.009,-0.1573 0.71563,0.74578 v -2.20567 -1.4157 l -0.71765,-0.64635 -0.008,1.88236 z"
         id="path4231"
         inkscape:connector-curvature="0"
         sodipodi:nodetypes="ccccccccc" />
      <path
         style="fill:url(#linearGradient4571);fill-opacity:1;stroke:none"
         d="m 132.61182,546.72244 v 2.26562 l 0.71875,-0.75391 v -1.51171 -2.0071 c -0.23597,0.19976 -0.47889,0.49592 -0.71875,0.6909 z"
         id="path4233"
         inkscape:connector-curvature="0"
         sodipodi:nodetypes="ccccccc" />
      <path
         style="fill:url(#linearGradient4573);fill-opacity:1;stroke:none"
         d="m 132.61047,548.98902 h 1.65234 1.63023 l -0.71815,-0.75 h -0.91208 -0.93749 z"
         id="path4235"
         inkscape:connector-curvature="0"
         sodipodi:nodetypes="ccccccc" />
      <path
         sodipodi:nodetypes="ccscccsccccccccsc"
         inkscape:connector-curvature="0"
         id="path4395"
         d="m 136.96875,531.78125 c -0.23854,0.0574 -0.47918,0.12037 -0.71875,0.17969 -2.4e-4,0.0312 -0.14119,0.27577 -0.3125,0.50781 -0.54112,0.73293 -0.6489,1.01485 -0.625,1.75 0.0162,0.49912 0.0601,0.71646 0.25,1.09375 0.37072,0.73663 1.09187,1.21358 2.03125,1.375 0.15264,0.0262 0.3538,0.0625 0.4375,0.0625 h 0.15625 V 536.375 536 h -0.15625 c -0.26503,-7.3e-4 -0.71891,-0.11394 -1,-0.25 -0.36064,-0.17456 -0.65877,-0.45404 -0.8125,-0.78125 -0.14668,-0.31219 -0.18706,-0.47596 -0.1875,-0.84375 -5.9e-4,-0.49991 0.0862,-0.6484 0.53125,-1.25 0.15896,-0.21485 0.30185,-0.472 0.34375,-0.5625 0.0793,-0.17128 0.1039,-0.35281 0.0625,-0.53125 z"
         style="fill:url(#linearGradient4575);fill-opacity:1;stroke:none" />
    </g>
  </g>
</svg>
